<?xml version="1.0" standalone="no"?>
<!DOCTYPE svg PUBLIC "-//W3C//DTD SVG 20010904//EN"
 "http://www.w3.org/TR/2001/REC-SVG-20010904/DTD/svg10.dtd">
<svg version="1.0" xmlns="http://www.w3.org/2000/svg"
 width="298.000000pt" height="230.000000pt" viewBox="0 0 298.000000 230.000000"
 preserveAspectRatio="xMidYMid meet">

<g transform="translate(0.000000,230.000000) scale(0.100000,-0.100000)"
fill="#000000" stroke="none">
<path d="M0 1150 l0 -1150 1490 0 1490 0 0 1150 0 1150 -1490 0 -1490 0 0
-1150z m1390 520 l0 -100 -50 0 -50 0 0 56 0 57 -42 -7 c-59 -10 -100 -35
-120 -76 -35 -69 -15 -160 45 -204 21 -16 47 -21 122 -24 l95 -4 0 -46 0 -45
-102 5 c-119 6 -181 29 -227 85 -72 88 -65 256 13 332 49 48 122 70 229 71
l87 0 0 -100z m268 58 l-3 -43 -90 0 -90 0 -3 43 -3 42 96 0 96 0 -3 -42z
m286 -105 c-31 -65 -79 -169 -107 -230 l-52 -113 -48 0 -47 0 14 33 c8 17 51
111 96 207 45 96 86 185 91 198 7 19 16 22 58 22 l50 0 -55 -117z m-984 3 c0
-32 -2 -34 -102 -81 -57 -26 -98 -50 -93 -52 6 -2 51 -20 100 -41 90 -37 90
-37 93 -76 4 -45 23 -49 -170 36 -183 81 -183 81 5 175 78 40 148 72 155 72 7
1 12 -12 12 -33z m1265 -38 c192 -96 192 -95 3 -178 -79 -34 -149 -65 -156
-67 -10 -4 -13 4 -10 33 3 39 3 39 93 76 50 21 94 39 100 41 5 2 -36 25 -93
52 -99 47 -102 49 -102 82 0 18 4 33 10 33 5 0 75 -33 155 -72z m-566 -102
c-4 -97 -7 -119 -25 -143 -32 -43 -80 -64 -144 -61 l-55 3 0 40 0 40 47 3 c68
4 78 23 78 139 l0 93 51 0 51 0 -3 -114z m-789 -446 l0 -100 -50 0 -50 0 0 56
0 57 -42 -7 c-59 -10 -100 -35 -120 -76 -35 -69 -15 -160 45 -204 21 -16 47
-21 122 -24 l95 -4 0 -46 0 -45 -102 5 c-119 6 -181 29 -227 85 -72 88 -65
256 13 332 49 48 122 70 229 71 l87 0 0 -100z m416 65 c124 -77 145 -274 41
-384 -46 -48 -101 -71 -172 -71 -140 0 -237 101 -237 246 -1 104 48 183 137
226 63 29 167 22 231 -17z m421 2 c82 -42 113 -102 113 -216 -1 -160 -100
-241 -297 -241 l-83 0 0 100 0 100 50 0 50 0 0 -56 0 -57 46 7 c98 13 139 66
132 167 -3 48 -10 65 -33 89 -28 30 -78 50 -122 50 -21 0 -23 -5 -23 -55 l0
-55 -50 0 -50 0 0 101 0 102 108 -5 c90 -4 115 -9 159 -31z m403 -12 l0 -45
-70 0 -70 0 0 -55 0 -54 98 -3 97 -3 0 -40 0 -40 -97 -3 -98 -3 0 -54 0 -55
70 0 70 0 0 -45 0 -46 -122 3 -123 3 -3 230 c-1 126 0 235 2 242 4 10 38 13
126 13 l120 0 0 -45z m330 26 c37 -20 66 -60 72 -101 3 -23 -1 -25 -36 -28
-34 -3 -43 1 -63 27 -29 36 -64 40 -93 11 -41 -41 -16 -79 59 -91 97 -15 153
-86 137 -172 -12 -63 -75 -117 -136 -117 -17 0 -20 6 -20 45 0 28 4 45 12 45
19 0 48 32 48 53 0 28 -28 57 -55 57 -66 0 -139 50 -154 106 -34 125 110 229
229 165z"/>
<path d="M1083 1030 c-44 -26 -63 -68 -63 -137 0 -96 51 -153 137 -153 80 0
137 64 137 155 0 92 -57 155 -139 155 -22 0 -54 -9 -72 -20z m103 -98 c33 -23
12 -82 -30 -82 -41 0 -63 49 -34 78 13 13 47 16 64 4z"/>
</g>
</svg>
